<svg width="40" height="40" viewBox="0 0 40 40" fill="none" xmlns="http://www.w3.org/2000/svg">
<rect width="40" height="40" rx="20" fill="#FF3E79"/>
<path d="M26.206 12.2568C26.5966 11.8663 27.2306 11.8663 27.6211 12.2568L27.7431 12.3789C28.1337 12.7694 28.1337 13.4034 27.7431 13.7939L21.5371 20L27.7431 26.206C28.1337 26.5966 28.1337 27.2306 27.7431 27.6211L27.6211 27.7431C27.2306 28.1337 26.5966 28.1337 26.206 27.7431L20 21.5371L13.7939 27.7431C13.4034 28.1337 12.7694 28.1337 12.3789 27.7431L12.2568 27.6211C11.8663 27.2306 11.8663 26.5966 12.2568 26.206L18.4629 20L12.2568 13.7939C11.8663 13.4034 11.8663 12.7694 12.2568 12.3789L12.3789 12.2568C12.7694 11.8663 13.4034 11.8663 13.7939 12.2568L20 18.4629L26.206 12.2568Z" fill="white"/>
</svg>
